<?xml version="1.0" encoding="utf-8" ?>
<svg baseProfile="full" height="1024" version="1.1" width="1024" xmlns="http://www.w3.org/2000/svg" xmlns:ev="http://www.w3.org/2001/xml-events" xmlns:xlink="http://www.w3.org/1999/xlink"><defs /><polygon fill="black" points="357.0,205.0 356.0,206.0 355.0,206.0 353.0,208.0 352.0,208.0 351.0,209.0 350.0,209.0 349.0,210.0 348.0,210.0 347.0,211.0 346.0,211.0 345.0,212.0 344.0,212.0 343.0,213.0 342.0,213.0 341.0,214.0 340.0,214.0 339.0,215.0 338.0,215.0 337.0,216.0 336.0,216.0 335.0,217.0 334.0,217.0 332.0,219.0 331.0,219.0 330.0,220.0 329.0,220.0 328.0,221.0 327.0,221.0 326.0,222.0 325.0,222.0 324.0,223.0 323.0,223.0 322.0,224.0 321.0,224.0 320.0,225.0 319.0,225.0 318.0,226.0 317.0,226.0 315.0,228.0 314.0,228.0 313.0,229.0 312.0,229.0 311.0,230.0 310.0,230.0 309.0,231.0 308.0,231.0 306.0,233.0 305.0,233.0 304.0,234.0 303.0,234.0 302.0,235.0 301.0,235.0 299.0,237.0 298.0,237.0 297.0,238.0 296.0,238.0 295.0,239.0 294.0,239.0 292.0,241.0 291.0,241.0 290.0,242.0 289.0,242.0 287.0,244.0 286.0,244.0 285.0,245.0 284.0,245.0 282.0,247.0 281.0,247.0 280.0,248.0 279.0,248.0 277.0,250.0 276.0,250.0 275.0,251.0 274.0,251.0 272.0,253.0 271.0,253.0 269.0,255.0 269.0,545.0 270.0,546.0 269.0,547.0 269.0,555.0 270.0,556.0 269.0,557.0 269.0,562.0 270.0,563.0 270.0,617.0 269.0,618.0 270.0,619.0 270.0,621.0 269.0,622.0 269.0,623.0 270.0,624.0 270.0,764.0 271.0,764.0 273.0,766.0 274.0,766.0 276.0,768.0 277.0,768.0 279.0,770.0 280.0,770.0 281.0,771.0 282.0,771.0 284.0,773.0 285.0,773.0 287.0,775.0 288.0,775.0 289.0,776.0 290.0,776.0 292.0,778.0 293.0,778.0 294.0,779.0 295.0,779.0 296.0,780.0 297.0,780.0 299.0,782.0 300.0,782.0 302.0,784.0 303.0,784.0 304.0,785.0 305.0,785.0 306.0,786.0 307.0,786.0 309.0,788.0 310.0,788.0 311.0,789.0 312.0,789.0 313.0,790.0 314.0,790.0 316.0,792.0 317.0,792.0 318.0,793.0 319.0,793.0 320.0,794.0 321.0,794.0 322.0,795.0 323.0,795.0 325.0,797.0 326.0,797.0 327.0,798.0 328.0,798.0 330.0,800.0 331.0,800.0 333.0,802.0 334.0,802.0 336.0,804.0 337.0,804.0 339.0,806.0 340.0,806.0 342.0,808.0 343.0,808.0 344.0,809.0 346.0,809.0 347.0,808.0 348.0,808.0 349.0,807.0 350.0,807.0 351.0,806.0 352.0,806.0 353.0,805.0 354.0,805.0 355.0,804.0 356.0,804.0 357.0,803.0 358.0,803.0 359.0,802.0 360.0,802.0 361.0,801.0 362.0,801.0 363.0,800.0 364.0,800.0 366.0,798.0 367.0,798.0 368.0,797.0 369.0,797.0 370.0,796.0 371.0,796.0 372.0,795.0 373.0,795.0 374.0,794.0 375.0,794.0 376.0,793.0 377.0,793.0 378.0,792.0 379.0,792.0 380.0,791.0 381.0,791.0 383.0,789.0 384.0,789.0 385.0,788.0 386.0,788.0 387.0,787.0 388.0,787.0 389.0,786.0 390.0,786.0 391.0,785.0 392.0,785.0 394.0,783.0 395.0,783.0 396.0,782.0 397.0,782.0 398.0,781.0 399.0,781.0 400.0,780.0 401.0,780.0 402.0,779.0 403.0,779.0 405.0,777.0 406.0,777.0 407.0,776.0 408.0,776.0 409.0,775.0 410.0,775.0 411.0,774.0 412.0,774.0 413.0,773.0 414.0,773.0 415.0,772.0 416.0,772.0 418.0,770.0 419.0,770.0 420.0,769.0 421.0,769.0 422.0,768.0 423.0,768.0 425.0,766.0 425.0,595.0 426.0,594.0 426.0,592.0 428.0,590.0 429.0,590.0 431.0,588.0 432.0,588.0 434.0,586.0 435.0,586.0 436.0,585.0 437.0,585.0 438.0,586.0 438.0,587.0 449.0,598.0 449.0,599.0 465.0,615.0 465.0,616.0 478.0,629.0 478.0,630.0 494.0,646.0 494.0,647.0 511.0,664.0 511.0,665.0 527.0,681.0 527.0,682.0 541.0,696.0 541.0,697.0 555.0,711.0 555.0,712.0 569.0,726.0 569.0,727.0 581.0,739.0 581.0,740.0 585.0,744.0 586.0,744.0 587.0,745.0 588.0,745.0 589.0,746.0 590.0,746.0 591.0,747.0 592.0,747.0 593.0,748.0 594.0,748.0 595.0,749.0 596.0,749.0 597.0,750.0 598.0,750.0 599.0,751.0 600.0,751.0 601.0,752.0 602.0,752.0 604.0,754.0 605.0,754.0 606.0,755.0 607.0,755.0 608.0,756.0 609.0,756.0 610.0,757.0 611.0,757.0 612.0,758.0 613.0,758.0 614.0,759.0 615.0,759.0 616.0,760.0 617.0,760.0 618.0,761.0 619.0,761.0 621.0,763.0 622.0,763.0 623.0,764.0 624.0,764.0 625.0,765.0 626.0,765.0 627.0,766.0 628.0,766.0 629.0,767.0 630.0,767.0 631.0,768.0 632.0,768.0 633.0,769.0 634.0,769.0 635.0,770.0 636.0,770.0 638.0,772.0 640.0,772.0 642.0,774.0 643.0,774.0 644.0,775.0 645.0,775.0 646.0,776.0 647.0,776.0 648.0,777.0 649.0,777.0 650.0,778.0 651.0,778.0 652.0,779.0 653.0,779.0 654.0,780.0 655.0,780.0 656.0,781.0 657.0,781.0 658.0,782.0 659.0,782.0 660.0,783.0 661.0,783.0 662.0,784.0 663.0,784.0 664.0,785.0 665.0,785.0 666.0,786.0 668.0,786.0 669.0,787.0 670.0,787.0 671.0,788.0 672.0,788.0 673.0,789.0 674.0,789.0 676.0,791.0 678.0,791.0 679.0,792.0 680.0,792.0 681.0,793.0 682.0,793.0 684.0,795.0 686.0,795.0 687.0,796.0 691.0,796.0 692.0,795.0 693.0,795.0 694.0,794.0 695.0,794.0 696.0,793.0 697.0,793.0 698.0,792.0 699.0,792.0 700.0,791.0 701.0,791.0 702.0,790.0 703.0,790.0 704.0,789.0 705.0,789.0 707.0,787.0 708.0,787.0 709.0,786.0 710.0,786.0 712.0,784.0 713.0,784.0 715.0,782.0 716.0,782.0 718.0,780.0 719.0,780.0 721.0,778.0 722.0,778.0 723.0,777.0 724.0,777.0 726.0,775.0 727.0,775.0 728.0,774.0 729.0,774.0 731.0,772.0 732.0,772.0 734.0,770.0 735.0,770.0 737.0,768.0 738.0,768.0 739.0,767.0 740.0,767.0 742.0,765.0 743.0,765.0 745.0,763.0 746.0,763.0 747.0,762.0 748.0,762.0 750.0,760.0 751.0,760.0 753.0,758.0 754.0,758.0 755.0,757.0 756.0,757.0 758.0,755.0 759.0,755.0 761.0,753.0 762.0,753.0 763.0,752.0 764.0,752.0 766.0,750.0 767.0,750.0 769.0,748.0 770.0,748.0 772.0,746.0 773.0,746.0 774.0,745.0 775.0,745.0 777.0,743.0 778.0,743.0 780.0,741.0 781.0,741.0 782.0,740.0 782.0,736.0 777.0,731.0 777.0,730.0 763.0,716.0 763.0,715.0 750.0,702.0 750.0,701.0 734.0,685.0 734.0,684.0 723.0,673.0 723.0,672.0 708.0,657.0 708.0,656.0 693.0,641.0 693.0,640.0 678.0,625.0 678.0,624.0 662.0,608.0 662.0,607.0 651.0,596.0 651.0,595.0 640.0,584.0 640.0,583.0 628.0,571.0 628.0,570.0 617.0,559.0 617.0,558.0 603.0,544.0 603.0,543.0 580.0,520.0 580.0,519.0 568.0,507.0 568.0,506.0 558.0,496.0 558.0,495.0 547.0,484.0 547.0,483.0 542.0,478.0 542.0,477.0 545.0,474.0 546.0,474.0 596.0,424.0 597.0,424.0 597.0,423.0 598.0,422.0 599.0,422.0 684.0,337.0 685.0,337.0 699.0,323.0 700.0,323.0 740.0,283.0 741.0,283.0 747.0,277.0 747.0,276.0 748.0,275.0 748.0,271.0 747.0,270.0 746.0,270.0 745.0,269.0 744.0,269.0 743.0,268.0 742.0,268.0 741.0,267.0 740.0,267.0 739.0,266.0 738.0,266.0 737.0,265.0 736.0,265.0 734.0,263.0 733.0,263.0 732.0,262.0 731.0,262.0 730.0,261.0 729.0,261.0 728.0,260.0 727.0,260.0 725.0,258.0 724.0,258.0 723.0,257.0 722.0,257.0 720.0,255.0 719.0,255.0 718.0,254.0 717.0,254.0 715.0,252.0 714.0,252.0 713.0,251.0 712.0,251.0 711.0,250.0 710.0,250.0 708.0,248.0 707.0,248.0 706.0,247.0 705.0,247.0 704.0,246.0 703.0,246.0 702.0,245.0 701.0,245.0 699.0,243.0 698.0,243.0 697.0,242.0 696.0,242.0 694.0,240.0 693.0,240.0 692.0,239.0 691.0,239.0 689.0,237.0 688.0,237.0 687.0,236.0 686.0,236.0 684.0,234.0 683.0,234.0 682.0,233.0 681.0,233.0 680.0,232.0 679.0,232.0 677.0,230.0 676.0,230.0 675.0,229.0 674.0,229.0 672.0,227.0 671.0,227.0 670.0,226.0 669.0,226.0 668.0,225.0 667.0,225.0 665.0,223.0 664.0,223.0 663.0,222.0 662.0,222.0 661.0,221.0 660.0,221.0 658.0,219.0 657.0,219.0 656.0,218.0 655.0,218.0 654.0,217.0 653.0,217.0 651.0,215.0 650.0,215.0 649.0,214.0 648.0,214.0 647.0,213.0 646.0,213.0 644.0,211.0 643.0,211.0 642.0,210.0 641.0,210.0 640.0,209.0 639.0,209.0 638.0,208.0 636.0,210.0 635.0,210.0 631.0,214.0 630.0,214.0 626.0,218.0 625.0,218.0 622.0,221.0 621.0,221.0 617.0,225.0 616.0,225.0 613.0,228.0 612.0,228.0 608.0,232.0 607.0,232.0 602.0,237.0 601.0,237.0 594.0,244.0 593.0,244.0 583.0,254.0 582.0,254.0 571.0,265.0 570.0,265.0 560.0,275.0 559.0,275.0 549.0,285.0 548.0,285.0 540.0,293.0 539.0,293.0 532.0,300.0 531.0,300.0 518.0,313.0 517.0,313.0 506.0,324.0 505.0,324.0 496.0,333.0 495.0,333.0 483.0,345.0 482.0,345.0 473.0,354.0 472.0,354.0 460.0,366.0 459.0,366.0 442.0,383.0 441.0,383.0 426.0,398.0 425.0,398.0 424.0,397.0 424.0,243.0 423.0,242.0 422.0,242.0 420.0,240.0 419.0,240.0 417.0,238.0 416.0,238.0 415.0,237.0 414.0,237.0 412.0,235.0 411.0,235.0 410.0,234.0 409.0,234.0 407.0,232.0 406.0,232.0 405.0,231.0 404.0,231.0 402.0,229.0 401.0,229.0 400.0,228.0 399.0,228.0 397.0,226.0 396.0,226.0 395.0,225.0 394.0,225.0 392.0,223.0 391.0,223.0 390.0,222.0 389.0,222.0 388.0,221.0 387.0,221.0 386.0,220.0 385.0,220.0 384.0,219.0 383.0,219.0 381.0,217.0 380.0,217.0 379.0,216.0 378.0,216.0 377.0,215.0 376.0,215.0 375.0,214.0 374.0,214.0 373.0,213.0 372.0,213.0 371.0,212.0 370.0,212.0 369.0,211.0 368.0,211.0 366.0,209.0 365.0,209.0 364.0,208.0 363.0,208.0 362.0,207.0 361.0,207.0 360.0,206.0 359.0,206.0 358.0,205.0" /></svg>